
		<svg xmlns="http://www.w3.org/2000/svg" xmlns:xlink="http://www.w3.org/1999/xlink" version="1.1" width="3206.896551724138" height="931.0344827586207">
			
			<g transform="scale(10.344827586206897) translate(10, 10)">
				<defs id="SvgjsDefs1501"/><g id="SvgjsG1502" featureKey="root" fill="#fff"/><g id="SvgjsG1503" featureKey="symbol1" fill="#fff" transform="matrix(0.7871890959813979,0,0,0.7871890959813979,-4.359453297625848,-4.325603992331138)"><polygon xmlns="http://www.w3.org/2000/svg" points="85.961,67.534 86.961,67.867 89.884,58.707 88.666,50.248 85.356,43.995 78.573,40.562 66.836,41.217   51.066,18.322 45.485,18.866 45.485,18.866 36.333,13.653 29.333,7.339 29.321,7.328 22.442,5.495 15.772,10.163 12.133,18.838   9.302,21.952 9.008,24.697 10.577,25.215 13.824,23.335 17.26,22.378 16.79,23.878 14.815,26.681 11.005,25.921 8.82,27.573   9.183,29.67 7.821,31.183 7.538,33.656 10.215,33.191 11.99,36.142 12.596,32.884 14.931,34.586 16.434,36.938 11.699,37.308   9.827,34.768 9.327,37.322 7.255,36.942 9.658,45.022 15.354,45.991 15.363,45.994 19.829,45.651 28.043,26.464 42.564,20.432   29.821,27.261 5.538,86.006 7.01,94.506 27.687,94.506 26.625,88.621 22.539,86.169 27.052,85.596 38.28,68.024 38.721,61.474   41.173,68.27 44.483,72.684 49.836,76.361 59.929,78.323 68.389,76.729 68.635,69.495 70.597,63.284 70.597,71.13 71.413,76.688   78.279,89.273 75.663,94.506 91.52,94.506 94.462,84.043 "/></g><g id="SvgjsG1504" featureKey="text1" fill="#fff" transform="matrix(1.8348203896151618,0,0,1.8348203896151618,89.78440913791565,1.8258998017452726)"><path d="M14.78 18.86 c0.1 0.22 0.06 0.46 -0.06 0.66 c-0.14 0.2 -0.36 0.32 -0.58 0.32 l-13.32 0 c-0.24 0 -0.46 -0.12 -0.58 -0.32 c-0.14 -0.2 -0.16 -0.44 -0.06 -0.66 l0.62 -1.46 c0.1 -0.26 0.36 -0.44 0.64 -0.44 l9.32 0 l-0.6 -1.44 l-2.68 -6.4 l-2.68 6.4 c-0.1 0.26 -0.36 0.42 -0.64 0.42 l-1.68 0 c-0.24 0 -0.46 -0.12 -0.6 -0.32 c-0.12 -0.18 -0.14 -0.44 -0.06 -0.66 l4.06 -9.52 c0.1 -0.28 0.36 -0.44 0.64 -0.44 l1.92 0 c0.28 0 0.52 0.16 0.64 0.44 z M23.240000000000002 5 c1.58 0 2.86 0.46 3.82 1.36 s1.44 2.12 1.44 3.62 s-0.48 2.72 -1.44 3.62 s-2.24 1.34 -3.82 1.34 l-3.78 0 l0 4.04 c0 0.38 -0.32 0.7 -0.7 0.7 l-1.5 0 c-0.38 0 -0.7 -0.32 -0.7 -0.7 l0 -13.28 c0 -0.38 0.32 -0.7 0.7 -0.7 l5.98 0 z M19.46 7.82 l0 4.32 l3.68 0 c0.86 0 1.48 -0.18 1.88 -0.56 s0.58 -0.9 0.58 -1.6 s-0.18 -1.22 -0.58 -1.58 c-0.4 -0.38 -1.04 -0.58 -1.88 -0.58 l-3.68 0 z M41 5 c0.4 0 0.7 0.32 0.7 0.7 l0 1.44 c0 0.38 -0.3 0.7 -0.7 0.7 l-7.56 0 l0 3.06 l6.68 0 c0.4 0 0.7 0.32 0.7 0.7 l0 1.46 c0 0.38 -0.3 0.7 -0.7 0.7 l-6.68 0 l0 3.08 l7.56 0 c0.4 0 0.7 0.32 0.7 0.7 l0 1.44 c0 0.38 -0.3 0.7 -0.7 0.7 l-9.76 0 c-0.38 0 -0.7 -0.32 -0.7 -0.7 l0 -13.28 c0 -0.38 0.32 -0.7 0.7 -0.7 l9.76 0 z  M62.06 5 c0.38 0 0.7 0.32 0.7 0.7 l0 13.4 c0 0.38 -0.32 0.7 -0.7 0.7 l-1.52 0 c-0.4 0 -0.7 -0.32 -0.7 -0.7 l0 -9.04 l-3.7 4.76 c-0.14 0.16 -0.34 0.26 -0.56 0.26 l0 0 c-0.22 0 -0.44 -0.1 -0.56 -0.28 l-6.56 -8.68 c-0.16 -0.2 -0.18 -0.5 -0.06 -0.72 c0.12 -0.24 0.36 -0.4 0.62 -0.4 l1.76 0 c0.22 0 0.42 0.1 0.56 0.28 l4.24 5.6 l4.14 -5.6 c0.14 -0.18 0.34 -0.28 0.58 -0.28 l1.76 0 z M50.540000000000006 14.7 c0.38 0 0.7 0.3 0.7 0.7 l0 3.7 c0 0.38 -0.32 0.7 -0.7 0.7 l-1.52 0 c-0.38 0 -0.7 -0.32 -0.7 -0.7 l0 -3.7 c0 -0.4 0.32 -0.7 0.7 -0.7 l1.52 0 z M72.6 5 c2.16 0 3.98 0.74 5.38 2.2 c1.36 1.42 2.06 3.2 2.06 5.3 s-0.7 3.88 -2.06 5.3 c-1.4 1.46 -3.22 2.2 -5.38 2.2 s-3.98 -0.74 -5.38 -2.2 c-1.36 -1.42 -2.06 -3.2 -2.06 -5.3 s0.7 -3.88 2.06 -5.3 c1.4 -1.46 3.22 -2.2 5.38 -2.2 z M72.6 17.14 c1.4 0 2.48 -0.44 3.32 -1.32 c0.82 -0.86 1.22 -1.96 1.22 -3.32 s-0.4 -2.44 -1.22 -3.32 c-0.84 -0.88 -1.92 -1.32 -3.32 -1.32 s-2.48 0.44 -3.32 1.32 c-0.82 0.88 -1.22 1.96 -1.22 3.32 s0.4 2.46 1.22 3.32 c0.84 0.88 1.92 1.32 3.32 1.32 z M91.28 5.5 c0.82 0.34 1.56 0.84 2.18 1.48 c1.38 1.4 2.08 3.2 2.08 5.36 s-0.7 3.96 -2.08 5.36 c-0.62 0.64 -1.36 1.14 -2.18 1.48 s-1.66 0.5 -2.54 0.5 l-5.6 0 c-0.38 0 -0.7 -0.32 -0.7 -0.7 l0 -13.28 c0 -0.38 0.32 -0.7 0.7 -0.7 l5.6 0 c0.88 0 1.74 0.18 2.54 0.5 z M85.33999999999999 7.82 l0 9.04 l3.34 0 c1.18 0 2.12 -0.42 2.86 -1.3 c0.74 -0.86 1.1 -1.92 1.1 -3.22 s-0.36 -2.36 -1.1 -3.22 c-0.74 -0.88 -1.68 -1.3 -2.86 -1.3 l-3.34 0 z M108.41999999999999 5 c0.4 0 0.7 0.32 0.7 0.7 l0 1.44 c0 0.38 -0.3 0.7 -0.7 0.7 l-7.56 0 l0 3.06 l6.68 0 c0.4 0 0.7 0.32 0.7 0.7 l0 1.46 c0 0.38 -0.3 0.7 -0.7 0.7 l-6.68 0 l0 3.08 l7.56 0 c0.4 0 0.7 0.32 0.7 0.7 l0 1.44 c0 0.38 -0.3 0.7 -0.7 0.7 l-9.76 0 c-0.38 0 -0.7 -0.32 -0.7 -0.7 l0 -13.28 c0 -0.38 0.32 -0.7 0.7 -0.7 l9.76 0 z"/></g><g id="SvgjsG1505" featureKey="text3" fill="#fff" transform="matrix(0.9602349288006526,0,0,0.9602349288006526,104.03976507119935,46.06845926832628)"><path d="M1 20 l0 -11.36 l1.92 0 l4.54 10 l0.06 0 l4.42 -10 l1.92 0 l0 11.36 l-1.3 0 l0 -9.3 c0 -0.22 0.02 -0.42 0.02 -0.66 l-0.02 0 c-0.1 0.24 -0.18 0.44 -0.26 0.66 l-3.98 9.3 l-1.66 0 l-4.06 -9.3 c-0.1 -0.22 -0.2 -0.42 -0.28 -0.66 l-0.04 0 l0 0.66 l0 9.3 l-1.28 0 z M18.919999999999998 19.16 c0.64 0 1.14 -0.04 1.62 -0.12 c0.14 -0.02 0.28 -0.1 0.38 -0.2 s0.18 -0.22 0.24 -0.38 c0.1 -0.3 0.14 -0.62 0.14 -0.92 c0 -0.26 -0.04 -0.6 -0.14 -0.9 c-0.06 -0.16 -0.14 -0.28 -0.24 -0.38 s-0.24 -0.18 -0.4 -0.22 c-0.46 -0.08 -0.96 -0.1 -1.6 -0.1 c-0.66 0 -1.28 0.02 -1.7 0.1 c-0.1 0.02 -0.18 0.06 -0.24 0.08 s-0.1 0.06 -0.12 0.12 c-0.2 0.42 -0.2 1.12 -0.2 1.3 c0 0.16 -0.06 0.94 0.2 1.3 c0.02 0.06 0.06 0.1 0.12 0.12 c0.04 0.02 0.12 0.06 0.24 0.08 c0.42 0.08 1.04 0.12 1.7 0.12 z M21.3 19.08 l-0.06 0 c-0.04 0.18 -0.1 0.32 -0.16 0.44 c-0.06 0.1 -0.1 0.16 -0.16 0.22 c-0.04 0.04 -0.14 0.08 -0.28 0.14 c-0.54 0.16 -1.24 0.22 -1.94 0.22 c-0.88 0 -1.74 -0.06 -2.36 -0.22 c-0.18 -0.06 -0.28 -0.08 -0.36 -0.14 s-0.1 -0.08 -0.18 -0.18 c-0.38 -0.64 -0.34 -1.48 -0.34 -2 c0 -0.46 -0.02 -1.38 0.34 -1.96 c0.08 -0.1 0.14 -0.18 0.18 -0.2 c0.08 -0.06 0.18 -0.08 0.36 -0.14 c0.62 -0.16 1.48 -0.22 2.36 -0.22 c0.72 0 1.46 0.06 2.02 0.22 c0.14 0.06 0.22 0.1 0.28 0.14 c0.06 0.02 0.1 0.08 0.16 0.18 c0.04 0.08 0.08 0.16 0.1 0.24 l0.06 0 l-0.02 -1.04 c-0.02 -0.54 -0.06 -1.1 -0.22 -1.58 c-0.02 -0.1 -0.06 -0.16 -0.12 -0.22 c-0.04 -0.04 -0.12 -0.08 -0.22 -0.1 c-0.46 -0.16 -1.08 -0.2 -1.7 -0.2 c-0.64 0 -1.28 0.04 -1.68 0.18 c-0.12 0.04 -0.2 0.08 -0.26 0.12 c-0.04 0.04 -0.08 0.12 -0.12 0.22 c-0.1 0.38 -0.12 0.66 -0.12 1.04 l-1.16 0 c0 -0.62 0.06 -1.26 0.36 -1.8 c0.08 -0.14 0.12 -0.2 0.2 -0.28 c0.08 -0.06 0.18 -0.08 0.36 -0.14 c0.66 -0.18 1.54 -0.26 2.5 -0.26 c0.88 0 1.78 0.08 2.48 0.26 c0.14 0.06 0.26 0.08 0.34 0.14 c0.08 0.08 0.14 0.14 0.2 0.28 c0.24 0.5 0.38 1.14 0.38 1.76 l0 5.8 l-1.1 0 z M29.740000000000002 11.86 l1.5 0 l-2.88 3.86 l3.22 4.28 l-1.52 0 l-2.6 -3.48 l-0.06 0 l-2.6 3.48 l-1.52 0 l3.26 -4.32 l-2.92 -3.82 l0 0 l1.52 0 l2.3 3.04 l0.06 0 z M32.38 20 l0 -8.14 l1.22 0 l0 8.14 l-1.22 0 z M32.38 9.86 l0 -1.48 l1.22 0 l0 1.48 l-1.22 0 z M42.099999999999994 13.120000000000001 l0.04 0 c0.04 -0.14 0.08 -0.24 0.1 -0.32 c0.06 -0.18 0.08 -0.26 0.16 -0.4 c0.1 -0.14 0.18 -0.18 0.36 -0.26 c0.58 -0.26 1.44 -0.38 2.06 -0.38 c0.66 0 1.84 0.12 2.48 0.44 c0.22 0.1 0.34 0.18 0.44 0.26 c0.08 0.1 0.14 0.24 0.22 0.46 c0.3 0.82 0.38 1.94 0.38 3 l0 4.08 l-1.2 0 l0 -4.08 c0 -0.82 -0.08 -1.68 -0.22 -2.38 c-0.06 -0.16 -0.08 -0.2 -0.16 -0.34 c-0.08 -0.06 -0.18 -0.12 -0.28 -0.18 c-0.48 -0.22 -1.12 -0.3 -1.66 -0.3 c-0.7 0 -1.32 0.08 -1.8 0.3 c-0.16 0.08 -0.28 0.18 -0.42 0.36 s-0.18 0.44 -0.18 0.7 l0 5.92 l-1.2 0 l0 -4.08 c0 -0.82 -0.08 -1.68 -0.26 -2.4 c-0.02 -0.14 -0.06 -0.24 -0.12 -0.32 c-0.06 -0.06 -0.14 -0.12 -0.26 -0.18 c-0.54 -0.22 -1.16 -0.3 -1.7 -0.3 c-0.7 0 -1.32 0.08 -1.78 0.3 c-0.18 0.08 -0.34 0.2 -0.44 0.38 c-0.1 0.16 -0.16 0.38 -0.16 0.68 l0 5.92 l-1.22 0 l0 -8.14 l1.1 0 l0.06 0.98 l0.06 0 c0.02 -0.12 0.04 -0.22 0.08 -0.32 s0.1 -0.2 0.16 -0.26 c0.08 -0.08 0.14 -0.12 0.3 -0.2 c0.46 -0.22 1.14 -0.3 1.84 -0.3 s1.8 0.14 2.52 0.44 c0.22 0.1 0.3 0.18 0.4 0.26 c0.08 0.1 0.14 0.24 0.22 0.46 c0.02 0.06 0.06 0.12 0.08 0.2 z M49.96 20 l0 -8.14 l1.22 0 l0 8.14 l-1.22 0 z M49.96 9.86 l0 -1.48 l1.22 0 l0 1.48 l-1.22 0 z M57.48 12.9 l0 -0.06 l-4.92 0 l0 -0.98 l6.52 0 l0 0.98 l-5.22 6.14 l0 0.06 l5.22 0 l0 0.96 l-6.74 0 l0 -0.96 z M66.14 18.38 c0.1 -0.38 0.12 -0.74 0.14 -1.14 l1.16 0 c0 0.64 -0.06 1.22 -0.24 1.78 c-0.08 0.18 -0.14 0.32 -0.22 0.42 c-0.1 0.1 -0.18 0.14 -0.4 0.24 c-0.7 0.32 -1.66 0.42 -2.64 0.42 c-1.02 0 -2.04 -0.14 -2.76 -0.46 c-0.22 -0.08 -0.34 -0.14 -0.42 -0.24 s-0.14 -0.22 -0.22 -0.44 c-0.3 -0.86 -0.4 -1.94 -0.4 -3.04 c0 -1.06 0.1 -2.18 0.4 -3 c0.08 -0.22 0.14 -0.36 0.22 -0.46 c0.08 -0.08 0.18 -0.16 0.42 -0.26 c0.72 -0.32 1.74 -0.44 2.76 -0.44 c0.98 0 1.96 0.12 2.62 0.42 c0.22 0.08 0.32 0.16 0.4 0.24 c0.08 0.1 0.14 0.2 0.22 0.42 c0.18 0.62 0.22 1.62 0.22 1.86 l0 1.4 l-6.02 0 c0 0.78 0.06 1.56 0.22 2.22 c0.04 0.14 0.08 0.26 0.14 0.32 s0.14 0.12 0.28 0.18 c0.5 0.24 1.22 0.32 1.92 0.32 s1.36 -0.08 1.82 -0.3 c0.12 -0.06 0.2 -0.1 0.26 -0.16 c0.04 -0.06 0.08 -0.16 0.12 -0.3 z M61.38 15.24 l4.86 0 c0 -0.62 0 -1.22 -0.1 -1.76 c-0.06 -0.18 -0.08 -0.24 -0.14 -0.32 c-0.06 -0.06 -0.14 -0.12 -0.26 -0.18 c-0.46 -0.18 -1.1 -0.26 -1.8 -0.26 s-1.42 0.08 -1.92 0.3 c-0.14 0.06 -0.22 0.12 -0.28 0.18 s-0.1 0.18 -0.14 0.32 c-0.14 0.54 -0.2 1.1 -0.22 1.72 z M72.5 19.14 c0.72 0 1.32 -0.12 1.8 -0.34 c0.14 -0.06 0.28 -0.18 0.38 -0.36 s0.16 -0.38 0.22 -0.6 c0.16 -0.72 0.14 -1.64 0.14 -1.92 s-0.04 -1.18 -0.14 -1.92 c-0.06 -0.24 -0.14 -0.44 -0.22 -0.6 c-0.1 -0.18 -0.22 -0.32 -0.4 -0.4 c-0.46 -0.18 -1.06 -0.28 -1.78 -0.28 c-0.7 0 -1.42 0.1 -1.92 0.28 c-0.14 0.06 -0.22 0.14 -0.28 0.2 s-0.1 0.18 -0.14 0.32 c-0.16 0.72 -0.22 1.58 -0.22 2.4 s0.06 1.68 0.22 2.4 c0.04 0.14 0.08 0.26 0.14 0.32 s0.14 0.14 0.28 0.2 c0.5 0.22 1.22 0.3 1.92 0.3 z M74.92 18.88 l-0.06 0 c-0.04 0.14 -0.08 0.28 -0.12 0.4 c-0.06 0.16 -0.08 0.26 -0.14 0.32 s-0.14 0.12 -0.28 0.18 c-0.48 0.24 -1.12 0.32 -1.82 0.32 c-1.02 0 -2.04 -0.12 -2.74 -0.44 c-0.24 -0.1 -0.36 -0.16 -0.44 -0.26 s-0.14 -0.22 -0.24 -0.46 c-0.26 -0.82 -0.38 -1.92 -0.38 -3.02 c0 -1.06 0.1 -2.18 0.4 -3 c0.08 -0.22 0.14 -0.36 0.22 -0.46 c0.08 -0.08 0.18 -0.16 0.42 -0.26 c0.72 -0.32 1.74 -0.44 2.76 -0.44 c0.7 0 1.4 0.08 1.86 0.32 c0.14 0.08 0.22 0.12 0.3 0.2 c0.06 0.06 0.1 0.12 0.14 0.22 c0.06 0.14 0.06 0.18 0.12 0.34 l0.02 0 c0 -0.78 -0.02 -1.5 -0.02 -2.24 l0 -2.22 l1.2 0 l0 11.62 l-1.1 0 z  M89.94 10.32 c-0.06 -0.1 -0.08 -0.16 -0.14 -0.22 s-0.14 -0.1 -0.28 -0.16 c-0.5 -0.16 -1.18 -0.22 -1.88 -0.22 l-3.8 0 l0 4.92 l3.8 0 c0.7 0 1.38 -0.04 1.88 -0.22 c0.14 -0.04 0.22 -0.08 0.28 -0.14 s0.08 -0.12 0.14 -0.22 c0.3 -0.58 0.3 -1.34 0.3 -1.88 c0 -0.5 0 -1.28 -0.3 -1.86 z M91.1 9.46 c0.44 0.82 0.42 2.1 0.42 2.72 c0 0.66 0.02 1.86 -0.42 2.74 c-0.08 0.16 -0.14 0.24 -0.24 0.32 s-0.24 0.12 -0.42 0.18 c-0.8 0.24 -1.86 0.32 -2.96 0.32 l-3.64 0 l0 4.26 l-1.28 0 l0 -11.36 l4.92 0 c1.1 0 2.16 0.06 2.96 0.3 c0.16 0.06 0.32 0.12 0.42 0.2 s0.16 0.16 0.24 0.32 z M98.62 18.38 c0.1 -0.38 0.12 -0.74 0.14 -1.14 l1.16 0 c0 0.64 -0.06 1.22 -0.24 1.78 c-0.08 0.18 -0.14 0.32 -0.22 0.42 c-0.1 0.1 -0.18 0.14 -0.4 0.24 c-0.7 0.32 -1.66 0.42 -2.64 0.42 c-1.02 0 -2.04 -0.14 -2.76 -0.46 c-0.22 -0.08 -0.34 -0.14 -0.42 -0.24 s-0.14 -0.22 -0.22 -0.44 c-0.3 -0.86 -0.4 -1.94 -0.4 -3.04 c0 -1.06 0.1 -2.18 0.4 -3 c0.08 -0.22 0.14 -0.36 0.22 -0.46 c0.08 -0.08 0.18 -0.16 0.42 -0.26 c0.72 -0.32 1.74 -0.44 2.76 -0.44 c0.98 0 1.96 0.12 2.62 0.42 c0.22 0.08 0.32 0.16 0.4 0.24 c0.08 0.1 0.14 0.2 0.22 0.42 c0.18 0.62 0.22 1.62 0.22 1.86 l0 1.4 l-6.02 0 c0 0.78 0.06 1.56 0.22 2.22 c0.04 0.14 0.08 0.26 0.14 0.32 s0.14 0.12 0.28 0.18 c0.5 0.24 1.22 0.32 1.92 0.32 s1.36 -0.08 1.82 -0.3 c0.12 -0.06 0.2 -0.1 0.26 -0.16 c0.04 -0.06 0.08 -0.16 0.12 -0.3 z M93.86 15.24 l4.86 0 c0 -0.62 0 -1.22 -0.1 -1.76 c-0.06 -0.18 -0.08 -0.24 -0.14 -0.32 c-0.06 -0.06 -0.14 -0.12 -0.26 -0.18 c-0.46 -0.18 -1.1 -0.26 -1.8 -0.26 s-1.42 0.08 -1.92 0.3 c-0.14 0.06 -0.22 0.12 -0.28 0.18 s-0.1 0.18 -0.14 0.32 c-0.14 0.54 -0.2 1.1 -0.22 1.72 z M104.98 12.719999999999999 c-0.7 0 -1.32 0.08 -1.78 0.3 c-0.18 0.08 -0.34 0.2 -0.44 0.38 c-0.1 0.16 -0.16 0.38 -0.16 0.68 l0 5.92 l-1.22 0 l0 -8.14 l1.1 0 l0.06 0.98 l0.06 0 c0.02 -0.12 0.04 -0.22 0.08 -0.32 s0.1 -0.2 0.18 -0.28 s0.12 -0.12 0.28 -0.2 c0.46 -0.18 1.14 -0.28 1.84 -0.28 c0.78 0 1.56 0.2 2.12 0.44 c0.22 0.1 0.34 0.18 0.42 0.26 c0.08 0.1 0.12 0.2 0.2 0.46 c0.16 0.5 0.26 1.14 0.28 1.8 l-1.2 0 c0 -0.4 -0.04 -0.82 -0.12 -1.2 c-0.02 -0.14 -0.06 -0.24 -0.12 -0.32 c-0.06 -0.06 -0.16 -0.14 -0.3 -0.2 c-0.34 -0.16 -0.72 -0.28 -1.28 -0.28 z M112.76 11.86 l0 0.96 l-2.06 0 l0 7.18 l-1.26 0 l0 -7.18 l-1.14 0 l0 -0.96 l1.14 0 l0 -0.86 c0 -0.72 0.06 -1.42 0.24 -1.98 c0.06 -0.14 0.08 -0.22 0.14 -0.28 s0.12 -0.1 0.26 -0.18 c0.46 -0.22 1.1 -0.3 1.76 -0.3 c0.42 0 0.88 0.04 1.28 0.1 l0 0.98 c-0.32 -0.06 -0.64 -0.06 -1.02 -0.06 s-0.78 0.02 -1.04 0.16 c-0.06 0.04 -0.12 0.08 -0.14 0.1 s-0.06 0.08 -0.08 0.16 c-0.1 0.4 -0.14 0.86 -0.14 1.32 l0 0.84 l2.06 0 z M120.78 18.96 c-0.08 0.22 -0.12 0.34 -0.2 0.44 s-0.18 0.16 -0.42 0.26 c-0.74 0.32 -1.76 0.44 -2.8 0.44 c-1.02 0 -2.04 -0.12 -2.76 -0.44 c-0.24 -0.1 -0.34 -0.16 -0.42 -0.26 s-0.14 -0.22 -0.22 -0.44 c-0.3 -0.86 -0.4 -1.94 -0.4 -3.04 c0 -1.06 0.1 -2.18 0.4 -3 c0.08 -0.22 0.14 -0.36 0.22 -0.46 c0.08 -0.08 0.2 -0.18 0.42 -0.26 c0.72 -0.32 1.74 -0.44 2.76 -0.44 c1.04 0 2.06 0.12 2.78 0.44 c0.24 0.1 0.34 0.18 0.44 0.26 c0.08 0.14 0.12 0.22 0.2 0.46 c0.32 0.82 0.42 1.94 0.42 3 c0 1.1 -0.1 2.18 -0.42 3.04 z M119.72 18.32 c0.16 -0.72 0.24 -1.58 0.24 -2.4 s-0.08 -1.68 -0.24 -2.4 c-0.04 -0.14 -0.08 -0.26 -0.12 -0.32 c-0.06 -0.06 -0.16 -0.12 -0.28 -0.18 c-0.5 -0.22 -1.22 -0.3 -1.96 -0.3 c-0.7 0 -1.42 0.12 -1.92 0.3 c-0.14 0.06 -0.22 0.12 -0.28 0.18 s-0.1 0.18 -0.14 0.32 c-0.16 0.72 -0.22 1.58 -0.22 2.4 s0.06 1.68 0.22 2.4 c0.04 0.14 0.08 0.26 0.14 0.32 s0.14 0.12 0.28 0.18 c0.5 0.24 1.22 0.32 1.92 0.32 c0.74 0 1.46 -0.08 1.96 -0.32 c0.12 -0.06 0.22 -0.12 0.28 -0.18 c0.04 -0.06 0.08 -0.18 0.12 -0.32 z M126.28 12.719999999999999 c-0.7 0 -1.32 0.08 -1.78 0.3 c-0.18 0.08 -0.34 0.2 -0.44 0.38 c-0.1 0.16 -0.16 0.38 -0.16 0.68 l0 5.92 l-1.22 0 l0 -8.14 l1.1 0 l0.06 0.98 l0.06 0 c0.02 -0.12 0.04 -0.22 0.08 -0.32 s0.1 -0.2 0.18 -0.28 s0.12 -0.12 0.28 -0.2 c0.46 -0.18 1.14 -0.28 1.84 -0.28 c0.78 0 1.56 0.2 2.12 0.44 c0.22 0.1 0.34 0.18 0.42 0.26 c0.08 0.1 0.12 0.2 0.2 0.46 c0.16 0.5 0.26 1.14 0.28 1.8 l-1.2 0 c0 -0.4 -0.04 -0.82 -0.12 -1.2 c-0.02 -0.14 -0.06 -0.24 -0.12 -0.32 c-0.06 -0.06 -0.16 -0.14 -0.3 -0.2 c-0.34 -0.16 -0.72 -0.28 -1.28 -0.28 z M137.1 13.120000000000001 l0.04 0 c0.04 -0.14 0.08 -0.24 0.1 -0.32 c0.06 -0.18 0.08 -0.26 0.16 -0.4 c0.1 -0.14 0.18 -0.18 0.36 -0.26 c0.58 -0.26 1.44 -0.38 2.06 -0.38 c0.66 0 1.84 0.12 2.48 0.44 c0.22 0.1 0.34 0.18 0.44 0.26 c0.08 0.1 0.14 0.24 0.22 0.46 c0.3 0.82 0.38 1.94 0.38 3 l0 4.08 l-1.2 0 l0 -4.08 c0 -0.82 -0.08 -1.68 -0.22 -2.38 c-0.06 -0.16 -0.08 -0.2 -0.16 -0.34 c-0.08 -0.06 -0.18 -0.12 -0.28 -0.18 c-0.48 -0.22 -1.12 -0.3 -1.66 -0.3 c-0.7 0 -1.32 0.08 -1.8 0.3 c-0.16 0.08 -0.28 0.18 -0.42 0.36 s-0.18 0.44 -0.18 0.7 l0 5.92 l-1.2 0 l0 -4.08 c0 -0.82 -0.08 -1.68 -0.26 -2.4 c-0.02 -0.14 -0.06 -0.24 -0.12 -0.32 c-0.06 -0.06 -0.14 -0.12 -0.26 -0.18 c-0.54 -0.22 -1.16 -0.3 -1.7 -0.3 c-0.7 0 -1.32 0.08 -1.78 0.3 c-0.18 0.08 -0.34 0.2 -0.44 0.38 c-0.1 0.16 -0.16 0.38 -0.16 0.68 l0 5.92 l-1.22 0 l0 -8.14 l1.1 0 l0.06 0.98 l0.06 0 c0.02 -0.12 0.04 -0.22 0.08 -0.32 s0.1 -0.2 0.16 -0.26 c0.08 -0.08 0.14 -0.12 0.3 -0.2 c0.46 -0.22 1.14 -0.3 1.84 -0.3 s1.8 0.14 2.52 0.44 c0.22 0.1 0.3 0.18 0.4 0.26 c0.08 0.1 0.14 0.24 0.22 0.46 c0.02 0.06 0.06 0.12 0.08 0.2 z M148.18 19.16 c0.64 0 1.14 -0.04 1.62 -0.12 c0.14 -0.02 0.28 -0.1 0.38 -0.2 s0.18 -0.22 0.24 -0.38 c0.1 -0.3 0.14 -0.62 0.14 -0.92 c0 -0.26 -0.04 -0.6 -0.14 -0.9 c-0.06 -0.16 -0.14 -0.28 -0.24 -0.38 s-0.24 -0.18 -0.4 -0.22 c-0.46 -0.08 -0.96 -0.1 -1.6 -0.1 c-0.66 0 -1.28 0.02 -1.7 0.1 c-0.1 0.02 -0.18 0.06 -0.24 0.08 s-0.1 0.06 -0.12 0.12 c-0.2 0.42 -0.2 1.12 -0.2 1.3 c0 0.16 -0.06 0.94 0.2 1.3 c0.02 0.06 0.06 0.1 0.12 0.12 c0.04 0.02 0.12 0.06 0.24 0.08 c0.42 0.08 1.04 0.12 1.7 0.12 z M150.56 19.08 l-0.06 0 c-0.04 0.18 -0.1 0.32 -0.16 0.44 c-0.06 0.1 -0.1 0.16 -0.16 0.22 c-0.04 0.04 -0.14 0.08 -0.28 0.14 c-0.54 0.16 -1.24 0.22 -1.94 0.22 c-0.88 0 -1.74 -0.06 -2.36 -0.22 c-0.18 -0.06 -0.28 -0.08 -0.36 -0.14 s-0.1 -0.08 -0.18 -0.18 c-0.38 -0.64 -0.34 -1.48 -0.34 -2 c0 -0.46 -0.02 -1.38 0.34 -1.96 c0.08 -0.1 0.14 -0.18 0.18 -0.2 c0.08 -0.06 0.18 -0.08 0.36 -0.14 c0.62 -0.16 1.48 -0.22 2.36 -0.22 c0.72 0 1.46 0.06 2.02 0.22 c0.14 0.06 0.22 0.1 0.28 0.14 c0.06 0.02 0.1 0.08 0.16 0.18 c0.04 0.08 0.08 0.16 0.1 0.24 l0.06 0 l-0.02 -1.04 c-0.02 -0.54 -0.06 -1.1 -0.22 -1.58 c-0.02 -0.1 -0.06 -0.16 -0.12 -0.22 c-0.04 -0.04 -0.12 -0.08 -0.22 -0.1 c-0.46 -0.16 -1.08 -0.2 -1.7 -0.2 c-0.64 0 -1.28 0.04 -1.68 0.18 c-0.12 0.04 -0.2 0.08 -0.26 0.12 c-0.04 0.04 -0.08 0.12 -0.12 0.22 c-0.1 0.38 -0.12 0.66 -0.12 1.04 l-1.16 0 c0 -0.62 0.06 -1.26 0.36 -1.8 c0.08 -0.14 0.12 -0.2 0.2 -0.28 c0.08 -0.06 0.18 -0.08 0.36 -0.14 c0.66 -0.18 1.54 -0.26 2.5 -0.26 c0.88 0 1.78 0.08 2.48 0.26 c0.14 0.06 0.26 0.08 0.34 0.14 c0.08 0.08 0.14 0.14 0.2 0.28 c0.24 0.5 0.38 1.14 0.38 1.76 l0 5.8 l-1.1 0 z M160.8 15.92 l0 4.08 l-1.2 0 l0 -4.08 c0 -0.82 -0.06 -1.7 -0.22 -2.36 c-0.06 -0.18 -0.08 -0.28 -0.16 -0.36 c-0.06 -0.06 -0.14 -0.12 -0.28 -0.18 c-0.48 -0.22 -1.2 -0.3 -1.92 -0.3 c-0.7 0 -1.32 0.08 -1.78 0.3 c-0.18 0.08 -0.34 0.2 -0.44 0.38 c-0.1 0.16 -0.16 0.38 -0.16 0.68 l0 5.92 l-1.22 0 l0 -8.14 l1.1 0 l0.06 0.98 l0.06 0 c0.02 -0.12 0.04 -0.22 0.08 -0.32 s0.1 -0.2 0.16 -0.28 c0.08 -0.08 0.14 -0.12 0.32 -0.2 c0.42 -0.18 1.12 -0.28 1.82 -0.28 c1.02 0 2.02 0.12 2.72 0.44 c0.24 0.1 0.36 0.18 0.46 0.26 c0.1 0.1 0.16 0.24 0.24 0.46 c0.26 0.82 0.36 1.94 0.36 3 z M168.22 18.38 c0.1 -0.46 0.14 -0.88 0.14 -1.3 l1.18 0 c0 0.66 -0.08 1.3 -0.26 1.92 c-0.08 0.22 -0.14 0.34 -0.22 0.44 s-0.22 0.18 -0.4 0.26 c-0.7 0.3 -1.66 0.4 -2.64 0.4 c-1.02 0 -2.04 -0.12 -2.78 -0.46 c-0.22 -0.1 -0.32 -0.14 -0.4 -0.24 s-0.14 -0.22 -0.22 -0.44 c-0.3 -0.86 -0.4 -1.94 -0.4 -3.04 c0 -1.06 0.12 -2.2 0.38 -2.94 c0.1 -0.3 0.16 -0.42 0.24 -0.52 c0.08 -0.08 0.18 -0.16 0.42 -0.26 c0.72 -0.32 1.74 -0.44 2.76 -0.44 c0.98 0 1.96 0.14 2.58 0.4 c0.26 0.1 0.36 0.18 0.44 0.26 c0.08 0.1 0.14 0.22 0.22 0.46 c0.18 0.56 0.22 1.2 0.22 1.82 l-1.16 0 c0 -0.4 -0.02 -0.84 -0.1 -1.22 c-0.06 -0.18 -0.08 -0.24 -0.14 -0.32 c-0.06 -0.06 -0.14 -0.12 -0.26 -0.18 c-0.46 -0.18 -1.1 -0.26 -1.8 -0.26 s-1.42 0.08 -1.92 0.3 c-0.14 0.06 -0.22 0.12 -0.28 0.18 s-0.1 0.18 -0.14 0.32 c-0.16 0.72 -0.22 1.58 -0.22 2.4 s0.06 1.68 0.22 2.4 c0.04 0.14 0.08 0.26 0.14 0.32 s0.14 0.12 0.26 0.18 c0.54 0.24 1.24 0.32 1.94 0.32 s1.36 -0.08 1.82 -0.3 c0.12 -0.06 0.2 -0.1 0.26 -0.16 c0.04 -0.06 0.08 -0.16 0.12 -0.3 z M176.74 18.38 c0.1 -0.38 0.12 -0.74 0.14 -1.14 l1.16 0 c0 0.64 -0.06 1.22 -0.24 1.78 c-0.08 0.18 -0.14 0.32 -0.22 0.42 c-0.1 0.1 -0.18 0.14 -0.4 0.24 c-0.7 0.32 -1.66 0.42 -2.64 0.42 c-1.02 0 -2.04 -0.14 -2.76 -0.46 c-0.22 -0.08 -0.34 -0.14 -0.42 -0.24 s-0.14 -0.22 -0.22 -0.44 c-0.3 -0.86 -0.4 -1.94 -0.4 -3.04 c0 -1.06 0.1 -2.18 0.4 -3 c0.08 -0.22 0.14 -0.36 0.22 -0.46 c0.08 -0.08 0.18 -0.16 0.42 -0.26 c0.72 -0.32 1.74 -0.44 2.76 -0.44 c0.98 0 1.96 0.12 2.62 0.42 c0.22 0.08 0.32 0.16 0.4 0.24 c0.08 0.1 0.14 0.2 0.22 0.42 c0.18 0.62 0.22 1.62 0.22 1.86 l0 1.4 l-6.02 0 c0 0.78 0.06 1.56 0.22 2.22 c0.04 0.14 0.08 0.26 0.14 0.32 s0.14 0.12 0.28 0.18 c0.5 0.24 1.22 0.32 1.92 0.32 s1.36 -0.08 1.82 -0.3 c0.12 -0.06 0.2 -0.1 0.26 -0.16 c0.04 -0.06 0.08 -0.16 0.12 -0.3 z M171.98000000000002 15.24 l4.86 0 c0 -0.62 0 -1.22 -0.1 -1.76 c-0.06 -0.18 -0.08 -0.24 -0.14 -0.32 c-0.06 -0.06 -0.14 -0.12 -0.26 -0.18 c-0.46 -0.18 -1.1 -0.26 -1.8 -0.26 s-1.42 0.08 -1.92 0.3 c-0.14 0.06 -0.22 0.12 -0.28 0.18 s-0.1 0.18 -0.14 0.32 c-0.14 0.54 -0.2 1.1 -0.22 1.72 z"/></g>
			</g>
		</svg>
	